<?xml version="1.0" encoding="UTF-8"?>
<svg width="67px" height="47px" viewBox="0 0 67 47" version="1.1" xmlns="http://www.w3.org/2000/svg" xmlns:xlink="http://www.w3.org/1999/xlink">
    <!-- Generator: Sketch 63.1 (92452) - https://sketch.com -->
    <title>Group 8</title>
    <desc>Created with Sketch.</desc>
    <defs>
        <linearGradient x1="0%" y1="50%" x2="100%" y2="74.3374797%" id="linearGradient-1">
            <stop stop-color="#79D1F3" offset="0%"></stop>
            <stop stop-color="#1587C8" offset="100%"></stop>
        </linearGradient>
    </defs>
    <g id="Page-1" stroke="none" stroke-width="1" fill="none" fill-rule="evenodd">
        <g id="Group" transform="translate(-555.000000, -317.000000)">
            <g id="Group-8" transform="translate(555.000000, 317.000000)">
                <path d="M63.7841482,0.620481928 L3.16002855,0.620481928 C2.47406321,0.620481928 1.85092634,0.900556412 1.39941925,1.35267108 C0.948558603,1.80413844 0.668674699,2.4273939 0.668674699,3.11586115 L0.668674699,43.5949822 C0.668674699,44.2842741 0.947526792,44.9081912 1.39850516,45.3597764 C1.84930242,45.8111803 2.47208898,46.0903614 3.16002855,46.0903614 L63.7841482,46.0903614 C64.4701135,46.0903614 65.0932504,45.810287 65.5447575,45.3581723 C65.9956181,44.9067049 66.275502,44.2834495 66.275502,43.5949822 L66.275502,3.11586115 C66.275502,2.42656927 65.9966499,1.80265219 65.5456715,1.35106696 C65.0948743,0.899663072 64.4720877,0.620481928 63.7841482,0.620481928 Z" id="Rectangle-Copy-4" stroke="#CAD2DB" fill="url(#linearGradient-1)"></path>
                <polygon id="Fill-1" fill="#FFFFFF" points="38.6576075 20.7957605 38.6576075 22.3886513 43.0257397 22.3886513 43.0257397 24.1761609 38.6576075 24.1761609 38.6576075 25.9192288 43.5497002 25.9192288 45.8222741 23.3489195 43.6460738 20.7957605"></polygon>
                <polygon id="Fill-2" fill="#FFFFFF" points="17.3506434 23.9634523 20.0666774 23.9634523 18.7048338 20.4716495"></polygon>
                <path d="M48.7862008,17.2409788 L47.1431731,19.1120029 L45.6043139,17.2409788 L36.1343348,17.2409788 L36.1343348,17.2470932 L30.663292,17.2470932 L29.3672092,20.4026009 L28.0362618,17.2470932 L21.952113,17.2470932 L21.952113,18.6899561 L21.283734,17.2470932 L16.0950091,17.2470932 L11.174713,29.4636308 L13.6858115,29.4636308 L17.0853893,29.4636308 L17.8518426,27.5180402 L19.5678592,27.5180402 L20.3324701,29.4636308 L27.0215047,29.4636308 L27.0215047,27.9763263 L27.618454,29.4698944 L31.0908789,29.4698944 L31.6879699,27.9539563 L31.6879699,29.4636308 L36.1343348,29.4636308 L36.1343348,29.4658678 L45.402638,29.4658678 L47.0954115,27.5654645 L48.6903942,29.4658678 L52.2905141,29.4692979 L52.2905141,29.4698944 L53.9625956,29.4698944 L53.9625956,27.335203 L50.643518,23.379447 L53.9625956,19.638741 L53.9625956,17.2409788 L48.7862008,17.2409788 Z M49.6568227,18.9837484 L52.2841364,18.9837484 L48.3838412,23.379447 L52.0468873,27.7453191 L49.5529377,27.7453191 L47.102923,24.8451273 L44.5568182,27.7453191 L42.2400258,27.7453191 L42.2400258,27.7430821 L36.675444,27.7430821 L36.675444,18.9838975 L41.1383909,18.9838975 L41.1383909,18.9837484 L44.6781355,18.9837484 L47.1260243,21.8556048 L49.6568227,18.9837484 Z M31.8553481,18.9838975 L35.168048,18.9838975 L35.168048,27.7430821 L33.1286131,27.7430821 L33.1211016,20.8829586 L30.2358469,27.7430821 L28.4889341,27.7430821 L25.5964514,20.8768442 L25.5964514,27.7430821 L21.5494699,27.7430821 L20.7850007,25.7894382 L16.6423543,25.7894382 L15.8699484,27.7430821 L13.7087711,27.7430821 L17.2719005,18.9838975 L20.2280181,18.9838975 L23.6121478,27.2770411 L23.6121478,18.9838975 L26.8592286,18.9838975 L29.4632993,24.9259575 L31.8553481,18.9838975 Z" id="Fill-3" fill="#FFFFFF"></path>
            </g>
        </g>
    </g>
</svg>