<svg xmlns="http://www.w3.org/2000/svg" viewBox="0 0 142 44" height="44" width="142">
    <title>Contiki logo</title>
    <g fill="#272A29" fill-rule="evenodd">
        <path d="M33.5 43.5c-8.51 0-14.5-5.808-14.5-14.028C19 21.308 24.99 15.5 33.5 15.5c8.508 0 14.5 5.808 14.5 13.972 0 8.22-5.992 14.028-14.5 14.028m0-19.95c-3.024 0-5.486 2.645-5.486 5.922 0 3.277 2.462 5.92 5.486 5.92 3.024 0 5.485-2.643 5.485-5.92s-2.46-5.922-5.485-5.922"/><path d="M.5 30c.5-8.175 6.166-14 13.833-14 2.223 0 3.78.39 5.667 1.4v7.617c-1.61-1.176-2.834-1.622-4.332-1.622-3.447 0-5.835 2.576-5.668 6.16.164 3.53 2.28 6.106 5.668 6.106 1.61 0 2.943-.504 4.332-1.68v7.62c-2.11 1.006-3.778 1.4-5.89 1.4C6.723 43 1 37.174.5 30zM65 30c-.37-3.233-.425-3.408-1-5-.415-.736-1.792-1.55-3-1.5-3.033-.05-4.63 1.93-5 5.5v14h-8V16h8v4c.755-.566 1.142-.972 1.5-1.5 1.513-1.567 3.716-2.5 6.5-2.5 2.83 0 5.146.99 7 3 1.506 1.89 2 3.577 2 7v17h-8V30zM77 16h-4v8h4v19h9V24h6v-8h-6V9h-9M97.5 12c-2.778 0-5-2.222-5-5 0-2.78 2.222-5 5-5s5 2.22 5 5c0 2.778-2.222 5-5 5zM93 16h9v27h-9V16zM136.5 12c-2.778 0-5-2.222-5-5 0-2.78 2.222-5 5-5s5 2.22 5 5c0 2.778-2.222 5-5 5zm-4.5 4h9v27h-9V16z"/><path d="M104 43h9V31.59L122 43h12l-13-15 12-12h-11l-9 9.66V0h-9v43z"/>
    </g>
</svg>