<?xml version="1.0" encoding="UTF-8"?>
<svg width="68px" height="47px" viewBox="0 0 68 47" version="1.1" xmlns="http://www.w3.org/2000/svg" xmlns:xlink="http://www.w3.org/1999/xlink">
    <!-- Generator: Sketch 63.1 (92452) - https://sketch.com -->
    <title>Group 11</title>
    <desc>Created with Sketch.</desc>
    <g id="Page-1" stroke="none" stroke-width="1" fill="none" fill-rule="evenodd">
        <g id="Group" transform="translate(-271.000000, -317.000000)">
            <g id="Group-11" transform="translate(271.000000, 317.000000)">
                <path d="M64.1576421,0.620481928 L3.53352252,0.620481928 C2.84755719,0.620481928 2.22442032,0.900556412 1.77291323,1.35267108 C1.32205258,1.80413844 1.04216867,2.4273939 1.04216867,3.11586115 L1.04216867,43.5949822 C1.04216867,44.2842741 1.32102077,44.9081912 1.77199914,45.3597764 C2.2227964,45.8111803 2.84558295,46.0903614 3.53352252,46.0903614 L64.1576421,46.0903614 C64.8436075,46.0903614 65.4667443,45.810287 65.9182514,45.3581723 C66.3691121,44.9067049 66.648996,44.2834495 66.648996,43.5949822 L66.648996,3.11586115 C66.648996,2.42656927 66.3701439,1.80265219 65.9191655,1.35106696 C65.4683683,0.899663072 64.8455817,0.620481928 64.1576421,0.620481928 Z" id="Rectangle-Copy-4" stroke="#CAD2DB" fill="#FFFFFF"></path>
                <circle id="Oval" fill="#F2C57C" cx="25.3261044" cy="23.6" r="9.2939759"></circle>
                <circle id="Oval-Copy" fill="#D0091B" cx="40.8160643" cy="23.6" r="9.2939759"></circle>
            </g>
        </g>
    </g>
</svg>