<?xml version="1.0" encoding="UTF-8"?>
<svg width="67px" height="47px" viewBox="0 0 67 47" version="1.1" xmlns="http://www.w3.org/2000/svg" xmlns:xlink="http://www.w3.org/1999/xlink">
    <!-- Generator: Sketch 63.1 (92452) - https://sketch.com -->
    <title>Group 12</title>
    <desc>Created with Sketch.</desc>
    <g id="Page-1" stroke="none" stroke-width="1" fill="none" fill-rule="evenodd">
        <g id="Group" transform="translate(-177.000000, -317.000000)">
            <g id="Group-12" transform="translate(177.000000, 317.000000)">
                <path d="M63.6154735,0.620481928 L2.99135385,0.620481928 C2.30538852,0.620481928 1.68225164,0.900556412 1.23074455,1.35267108 C0.779883904,1.80413844 0.5,2.4273939 0.5,3.11586115 L0.5,43.5949822 C0.5,44.2842741 0.778852093,44.9081912 1.22983046,45.3597764 C1.68062772,45.8111803 2.30341428,46.0903614 2.99135385,46.0903614 L63.6154735,46.0903614 C64.3014388,46.0903614 64.9245757,45.810287 65.3760828,45.3581723 C65.8269434,44.9067049 66.1068273,44.2834495 66.1068273,43.5949822 L66.1068273,3.11586115 C66.1068273,2.42656927 65.8279752,1.80265219 65.3769968,1.35106696 C64.9261996,0.899663072 64.303413,0.620481928 63.6154735,0.620481928 Z" id="Rectangle-Copy-4" stroke="#CAD2DB" fill="#FFFFFF"></path>
                <path d="M27.8968136,12.3493624 L34.7209004,12.3493624 C36.6428637,12.3493624 38.9223687,12.4118266 40.4473761,13.7566555 C41.4659832,14.6550849 42.0005364,16.0864838 41.8770155,17.6231043 C41.458593,22.833854 38.3417152,25.7524299 34.1620654,25.7524299 L30.7963862,25.7524299 C30.2236507,25.7524299 29.8439385,26.1319662 29.6824112,27.1600749 L28.7431601,33.134472 C28.6822794,33.5221023 28.5142418,33.7504927 28.2075512,33.7781177 L24.0037954,33.7781177 C23.5373371,33.7781177 23.3715869,33.4212797 23.4935241,32.6484826 L26.5206646,13.4830445 C26.6418981,12.7149982 27.0620801,12.3493624 27.8968136,12.3493624" id="Fill-1" fill="#1B3D92"></path>
                <path d="M32.2122835,18.1558803 L39.0295081,18.1558803 C42.689385,18.1558803 44.0674694,20.008517 43.8547391,22.7349494 C43.5038836,27.2293838 40.786425,29.714581 37.18215,29.714581 L35.3622411,29.714581 C34.8683336,29.714581 34.5359535,30.0411546 34.4013474,30.9286748 L33.6208083,36.0810073 C33.5701331,36.4156749 33.3941774,36.6122173 33.1297161,36.6361473 L28.8550503,36.6361473 C28.4528157,36.6361473 28.3097638,36.3284009 28.4149853,35.661881 L31.0254629,19.1336657 C31.1299805,18.4711928 31.4922731,18.1558803 32.2122835,18.1558803" id="Fill-1" fill="#00A2D3"></path>
                <path d="M29.7892866,26.6762849 L30.9808581,19.1335953 C31.0855517,18.4712983 31.4480203,18.1559859 32.1680307,18.1559859 L38.9852553,18.1559859 C40.1138346,18.1559859 41.0254607,18.3321174 41.7400165,18.6565796 C41.0550212,23.2942419 38.0555058,25.870936 34.1278244,25.870936 L30.7619693,25.870936 C30.319089,25.870936 29.9881165,26.0973909 29.7892866,26.6762849" id="Page-1" fill="#1B2E7F"></path>
            </g>
        </g>
    </g>
</svg>