<?xml version="1.0" encoding="UTF-8"?>
<svg width="67px" height="47px" viewBox="0 0 67 47" version="1.1" xmlns="http://www.w3.org/2000/svg" xmlns:xlink="http://www.w3.org/1999/xlink">
    <!-- Generator: Sketch 63.1 (92452) - https://sketch.com -->
    <title>Group 9</title>
    <desc>Created with Sketch.</desc>
    <g id="Page-1" stroke="none" stroke-width="1" fill="none" fill-rule="evenodd">
        <g id="Group" transform="translate(-460.000000, -317.000000)">
            <g id="Group-9" transform="translate(460.000000, 317.000000)">
                <path d="M2.22891566,3.11586115 C2.22891566,1.46155889 3.56778518,0.120481928 5.22304674,0.120481928 L62.6367926,0.120481928 C64.2904055,0.120481928 65.6309237,1.46111944 65.6309237,3.11586115 L65.6309237,43.5949822 C65.6309237,45.2492845 64.2920542,46.5903614 62.6367926,46.5903614 L5.22304674,46.5903614 C3.56943381,46.5903614 2.22891566,45.2497239 2.22891566,43.5949822 L2.22891566,3.11586115 Z" id="Rectangle-Copy-4" fill="#FFFFFF"></path>
                <path d="M42.3047822,17.7668717 C41.6549068,17.5257508 40.636638,17.2673094 39.3647819,17.2673094 C36.1237041,17.2673094 33.8402647,18.8808592 33.8208998,21.1933861 C33.8026876,22.9028829 35.4510059,23.8566549 36.695198,24.4257275 C37.9718953,25.0087022 38.4011497,25.3806391 38.3951558,25.9013963 C38.3870871,26.6988272 37.3755038,27.0632434 36.4326197,27.0632434 C35.1197285,27.0632434 34.4223631,26.8829725 33.3450776,26.4387905 L32.9222782,26.2496314 L32.4619018,28.9129002 C33.2281969,29.2449542 34.6448284,29.5327951 36.115866,29.5476087 C39.5639633,29.5476087 41.8024486,27.952519 41.8280378,25.4829673 C41.8402561,24.1296821 40.9663017,23.0995628 39.0738479,22.2506259 C37.9274023,21.7002413 37.2251957,21.3328624 37.2325727,20.7756408 C37.2325727,20.2810923 37.8268894,19.7523585 39.1109639,19.7523585 C40.1838692,19.7359495 40.9607689,19.9670426 41.5661512,20.2081635 L41.8600821,20.3453608 L42.3047822,17.7668717" id="Fill-2" fill="#00579F"></path>
                <path d="M46.6714192,25.153671 C46.9427577,24.4681402 47.9783165,21.8278895 47.9783165,21.8278895 C47.9589517,21.8595679 48.2475803,21.1391681 48.4133342,20.6924791 L48.635108,21.7182684 C48.635108,21.7182684 49.2630826,24.5581617 49.3942565,25.153671 L46.6714192,25.153671 Z M50.7163691,17.4854349 L48.1816476,17.4854349 C47.3964487,17.4854349 46.8088175,17.6971563 46.4639386,18.4720249 L41.5922937,29.3751093 L45.0367025,29.3751093 C45.0367025,29.3751093 45.6001276,27.9090124 45.7273824,27.587214 C46.1038445,27.587214 49.4500457,27.5922279 49.9284038,27.5922279 C50.0266113,28.0086058 50.3274582,29.3751093 50.3274582,29.3751093 L53.3711988,29.3751093 L50.7163691,17.4854349 L50.7163691,17.4854349 Z" id="Fill-4" fill="#00579F"></path>
                <path d="M24.3775118,17.4826545 L21.1659425,25.5957563 L20.82383,23.9468815 C20.2260553,22.0461745 18.3633404,19.9870753 16.2806961,18.9562722 L19.2172384,29.3609338 L22.687928,29.3570594 L27.8521205,17.4826545 L24.3775118,17.4826545" id="Fill-6" fill="#00579F"></path>
                <path d="M18.1867514,17.475316 L12.8973789,17.475316 L12.8554217,17.7228182 C16.9706844,18.7075849 19.6935217,21.0875709 20.82383,23.946836 L19.6736958,18.4796824 C19.4749754,17.7264646 18.8991015,17.5015248 18.1867514,17.475316" id="Fill-8" fill="#F9A51A"></path>
                <polygon id="Fill-1" fill="#00579F" points="29.1795815 17.4739714 27.1287509 29.3713945 30.4076362 29.3713945 32.45985 17.4739714"></polygon>
                <path d="M1.46987952,3.11201124 C1.46987952,1.45983522 2.81092584,0.120481928 4.47090807,0.120481928 L63.3889313,0.120481928 C65.0463536,0.120481928 66.3899598,1.46417125 66.3899598,3.11201124 L66.3899598,12.3493976 L1.46987952,12.3493976 L1.46987952,3.11201124 Z" id="Rectangle-Copy-5" fill="#00579F"></path>
                <path d="M1.46987952,37.3529751 C1.46987952,35.7007991 2.81092584,34.3614458 4.47090807,34.3614458 L63.3889313,34.3614458 C65.0463536,34.3614458 66.3899598,35.7051351 66.3899598,37.3529751 L66.3899598,46.5903614 L1.46987952,46.5903614 L1.46987952,37.3529751 Z" id="Rectangle-Copy-6" fill="#F9A51A" transform="translate(33.929920, 40.475904) rotate(180.000000) translate(-33.929920, -40.475904) "></path>
                <path d="M63.6993588,0.620481928 L3.62634401,0.620481928 C2.93800531,0.620481928 2.31250852,0.900724807 1.8592886,1.35327108 C1.40728845,1.80459941 1.12650602,2.42759974 1.12650602,3.11586115 L1.12650602,43.5949822 C1.12650602,44.2841121 1.4061913,44.9078186 1.85832044,45.3592758 C2.31078118,45.811064 2.93589943,46.0903614 3.62634401,46.0903614 L63.6993588,46.0903614 C64.3876975,46.0903614 65.0131943,45.8101186 65.4664142,45.3575723 C65.9184144,44.906244 66.1991968,44.2832436 66.1991968,43.5949822 L66.1991968,3.11586115 C66.1991968,2.42673129 65.9195115,1.80302473 65.4673824,1.35156761 C65.0149216,0.899779371 64.3898034,0.620481928 63.6993588,0.620481928 Z" id="Rectangle-Copy-4" stroke="#CAD2DB"></path>
            </g>
        </g>
    </g>
</svg>